G04*
G04 #@! TF.GenerationSoftware,Altium Limited,Altium Designer,22.0.2 (36)*
G04*
G04 Layer_Color=32896*
%FSLAX44Y44*%
%MOMM*%
G71*
G04*
G04 #@! TF.SameCoordinates,30EAB5E2-3245-48BA-9E60-DBBC371523A7*
G04*
G04*
G04 #@! TF.FilePolarity,Positive*
G04*
G01*
G75*
%ADD11C,0.1500*%
%ADD31C,1.0000*%
%ADD32C,0.2000*%
%ADD33C,0.4000*%
G36*
X473970Y227470D02*
X463810D01*
X473970Y217310D01*
X473970Y227470D01*
D02*
G37*
G36*
Y397470D02*
X463810D01*
X473970Y387310D01*
X473970Y397470D01*
D02*
G37*
G36*
X151980Y678020D02*
Y667860D01*
X162140Y678020D01*
X151980Y678020D01*
D02*
G37*
G36*
X473970Y614770D02*
X463810D01*
X473970Y604610D01*
X473970Y614770D01*
D02*
G37*
D11*
X258000Y568000D02*
G03*
X258000Y568000I-1000J0D01*
G01*
X478500Y462000D02*
G03*
X478500Y462000I-18500J0D01*
G01*
Y420000D02*
G03*
X478500Y420000I-18500J0D01*
G01*
X283000Y514000D02*
X287000D01*
X283000Y506000D02*
X287000D01*
X284000Y539000D02*
X288000D01*
X284000Y531000D02*
X288000D01*
X248000Y506000D02*
X252000D01*
X248000Y514000D02*
X251999D01*
X250000Y506000D02*
Y514000D01*
X251000Y506000D02*
Y514000D01*
X252000Y506000D02*
Y514000D01*
X248000Y531000D02*
X252000D01*
X248000Y539000D02*
X251999D01*
X250000Y531000D02*
Y539000D01*
X251000Y531000D02*
Y539000D01*
X252000Y531000D02*
Y539000D01*
X325000Y547000D02*
Y551000D01*
X317000Y547000D02*
Y551000D01*
X446030Y485230D02*
Y614770D01*
Y485230D02*
X473970D01*
Y614770D01*
X446030D02*
X473970D01*
X446030Y242530D02*
Y397470D01*
Y242530D02*
X473970D01*
Y397470D01*
X446030D02*
X473970D01*
X446030Y72530D02*
Y227470D01*
Y72530D02*
X473970D01*
Y227470D01*
X446030D02*
X473970D01*
X261500Y683000D02*
X275000D01*
X261500Y674000D02*
Y683000D01*
X388500Y674000D02*
Y683000D01*
X375000D02*
X388500D01*
Y565000D02*
Y574000D01*
X375000Y565000D02*
X388500D01*
X261500D02*
X275000D01*
X261500D02*
Y574000D01*
X243000Y594000D02*
X247000D01*
X243000Y586000D02*
X247000D01*
X243000Y608000D02*
X247000D01*
X243000Y600000D02*
X247000D01*
X243000Y622000D02*
X247000D01*
X243000Y614000D02*
X247000D01*
X243000Y636000D02*
X247000D01*
X243000Y628000D02*
X247000D01*
X237000Y410000D02*
Y470000D01*
X297000Y410000D02*
Y470000D01*
X237000Y410000D02*
X297000D01*
X237000Y470000D02*
X297000D01*
X151980Y611980D02*
Y678020D01*
X218020D01*
X151980Y611980D02*
X218020D01*
Y678020D01*
X401000Y445000D02*
X405000D01*
X401000Y437000D02*
X405000D01*
X401000Y431000D02*
X405000D01*
X401000Y423000D02*
X405000D01*
X402000Y413000D02*
X406000D01*
X402000Y405000D02*
X406000D01*
X402000Y399000D02*
X406000D01*
X402000Y391000D02*
X406000D01*
X360000Y402000D02*
X378000D01*
X360000Y434000D02*
X378000D01*
X376000Y344000D02*
Y362000D01*
X348000Y358000D02*
X376000D01*
X348000Y360000D02*
X376000D01*
X348000Y362000D02*
X376000D01*
X348000Y344000D02*
Y362000D01*
X410000Y344000D02*
Y362000D01*
X382000Y358000D02*
X410000D01*
X382000Y360000D02*
X410000D01*
X382000Y362000D02*
X410000D01*
X382000Y344000D02*
Y362000D01*
X403000Y664000D02*
X407000D01*
X403000Y656000D02*
X407000D01*
X431000Y664000D02*
X435000D01*
X431000Y656000D02*
X435000D01*
X438000Y621000D02*
X490000D01*
X438000Y699000D02*
X490000D01*
X438000Y621000D02*
Y699000D01*
X490000Y625000D02*
Y694000D01*
X-0Y775000D02*
X0Y0D01*
X-0Y775000D02*
X490000D01*
X490000Y0D01*
X0D02*
X490000D01*
D31*
X440000Y213500D02*
G03*
X440000Y213500I0J0D01*
G01*
Y383500D02*
G03*
X440000Y383500I0J0D01*
G01*
Y600800D02*
G03*
X440000Y600800I0J0D01*
G01*
D32*
X355000Y402000D02*
G03*
X355000Y402000I-1000J0D01*
G01*
D33*
X435998Y431092D02*
Y421095D01*
X431000Y416097D01*
X426002Y421095D01*
Y431092D01*
X433499Y403498D02*
X428501D01*
X431000D01*
Y388502D01*
X433499D01*
X428501D01*
X435998Y360908D02*
Y375903D01*
X426002Y360908D01*
Y375903D01*
X430000Y506698D02*
X434998D01*
X432499D01*
Y494202D01*
X434998Y491702D01*
X437498D01*
X439997Y494202D01*
X425002Y491702D02*
X420003D01*
X422502D01*
Y506698D01*
X425002Y504198D01*
X432499Y263998D02*
X437498D01*
X434998D01*
Y251502D01*
X437498Y249002D01*
X439997D01*
X442496Y251502D01*
X417504Y263998D02*
X427501D01*
Y256500D01*
X422502Y258999D01*
X420003D01*
X417504Y256500D01*
Y251502D01*
X420003Y249002D01*
X425002D01*
X427501Y251502D01*
X432499Y93998D02*
X437498D01*
X434998D01*
Y81502D01*
X437498Y79002D01*
X439997D01*
X442496Y81502D01*
X417504Y79002D02*
X427501D01*
X417504Y88999D01*
Y91498D01*
X420003Y93998D01*
X425002D01*
X427501Y91498D01*
X434000Y466936D02*
X431501Y469435D01*
X426502D01*
X424003Y466936D01*
Y464436D01*
X426502Y461937D01*
X429002D01*
X426502D01*
X424003Y459438D01*
Y456939D01*
X426502Y454440D01*
X431501D01*
X434000Y456939D01*
X419005Y469435D02*
Y459438D01*
X414007Y454440D01*
X409008Y459438D01*
Y469435D01*
X404010Y466936D02*
X401511Y469435D01*
X396512D01*
X394013Y466936D01*
Y464436D01*
X396512Y461937D01*
X399011D01*
X396512D01*
X394013Y459438D01*
Y456939D01*
X396512Y454440D01*
X401511D01*
X404010Y456939D01*
X301989Y383559D02*
Y398554D01*
X294491D01*
X291992Y396055D01*
Y391057D01*
X294491Y388558D01*
X301989D01*
X296990D02*
X291992Y383559D01*
X276997Y398554D02*
X286994D01*
Y383559D01*
X276997D01*
X286994Y391057D02*
X281995D01*
X262002Y396055D02*
X264501Y398554D01*
X269499D01*
X271998Y396055D01*
Y393556D01*
X269499Y391057D01*
X264501D01*
X262002Y388558D01*
Y386058D01*
X264501Y383559D01*
X269499D01*
X271998Y386058D01*
X247006Y398554D02*
X257003D01*
Y383559D01*
X247006D01*
X257003Y391057D02*
X252005D01*
X242008Y398554D02*
X232011D01*
X237010D01*
Y383559D01*
X216000Y517498D02*
Y502502D01*
X206003D01*
X201005Y517498D02*
Y502502D01*
X193507D01*
X191008Y505002D01*
Y514998D01*
X193507Y517498D01*
X201005D01*
X176013Y502502D02*
X186010D01*
X176013Y512499D01*
Y514998D01*
X178512Y517498D01*
X183510D01*
X186010Y514998D01*
X216000Y542498D02*
Y527502D01*
X206003D01*
X201005Y542498D02*
Y527502D01*
X193507D01*
X191008Y530002D01*
Y539998D01*
X193507Y542498D01*
X201005D01*
X186010Y527502D02*
X181011D01*
X183510D01*
Y542498D01*
X186010Y539998D01*
X416000Y189997D02*
Y176668D01*
X409336Y170003D01*
X402671Y176668D01*
Y189997D01*
X386010Y170003D02*
X392674D01*
X396006Y173335D01*
Y180000D01*
X392674Y183332D01*
X386010D01*
X382677Y180000D01*
Y176668D01*
X396006D01*
X376013Y183332D02*
Y170003D01*
Y176668D01*
X372681Y180000D01*
X369348Y183332D01*
X366016D01*
X336026Y170003D02*
X329361D01*
X332693D01*
Y189997D01*
X336026Y186665D01*
X319364Y170003D02*
Y173335D01*
X316032D01*
Y170003D01*
X319364D01*
X302703Y186665D02*
X299371Y189997D01*
X292706D01*
X289374Y186665D01*
Y173335D01*
X292706Y170003D01*
X299371D01*
X302703Y173335D01*
Y186665D01*
X246000Y170003D02*
X239335D01*
X242668D01*
Y189997D01*
X246000Y186665D01*
X229339Y173335D02*
X226007Y170003D01*
X219342D01*
X216010Y173335D01*
Y186665D01*
X219342Y189997D01*
X226007D01*
X229339Y186665D01*
Y183332D01*
X226007Y180000D01*
X216010D01*
X209345Y170003D02*
Y173335D01*
X206013D01*
Y170003D01*
X209345D01*
X192684Y186665D02*
X189352Y189997D01*
X182687D01*
X179355Y186665D01*
Y173335D01*
X182687Y170003D01*
X189352D01*
X192684Y173335D01*
Y186665D01*
X159361Y189997D02*
X166026Y186665D01*
X172690Y180000D01*
Y173335D01*
X169358Y170003D01*
X162694D01*
X159361Y173335D01*
Y176668D01*
X162694Y180000D01*
X172690D01*
X152697Y170003D02*
Y173335D01*
X149365D01*
Y170003D01*
X152697D01*
X122706D02*
X136035D01*
X122706Y183332D01*
Y186665D01*
X126039Y189997D01*
X132703D01*
X136035Y186665D01*
X116042D02*
X112710Y189997D01*
X106045D01*
X102713Y186665D01*
Y173335D01*
X106045Y170003D01*
X112710D01*
X116042Y173335D01*
Y186665D01*
X82719Y170003D02*
X96048D01*
X82719Y183332D01*
Y186665D01*
X86052Y189997D01*
X92716D01*
X96048Y186665D01*
X76055D02*
X72723Y189997D01*
X66058D01*
X62726Y186665D01*
Y183332D01*
X66058Y180000D01*
X69390D01*
X66058D01*
X62726Y176668D01*
Y173335D01*
X66058Y170003D01*
X72723D01*
X76055Y173335D01*
X402671Y156690D02*
X406003Y160022D01*
X412668D01*
X416000Y156690D01*
Y153357D01*
X412668Y150025D01*
X406003D01*
X402671Y146693D01*
Y143361D01*
X406003Y140028D01*
X412668D01*
X416000Y143361D01*
X392674Y156690D02*
Y153357D01*
X396006D01*
X389342D01*
X392674D01*
Y143361D01*
X389342Y140028D01*
X376013D02*
X369348D01*
X366016Y143361D01*
Y150025D01*
X369348Y153357D01*
X376013D01*
X379345Y150025D01*
Y143361D01*
X376013Y140028D01*
X349355D02*
X356019D01*
X359352Y143361D01*
Y150025D01*
X356019Y153357D01*
X349355D01*
X346023Y150025D01*
Y146693D01*
X359352D01*
X339358Y153357D02*
Y140028D01*
Y146693D01*
X336026Y150025D01*
X332693Y153357D01*
X329361D01*
X319364Y140028D02*
X312700D01*
X316032D01*
Y153357D01*
X319364D01*
X282710Y140028D02*
Y160022D01*
X272713D01*
X269381Y156690D01*
Y150025D01*
X272713Y146693D01*
X282710D01*
X262716Y140028D02*
Y143361D01*
X259384D01*
Y140028D01*
X262716D01*
X413668Y213332D02*
X407003D01*
X403671Y210000D01*
Y200003D01*
X413668D01*
X417000Y203335D01*
X413668Y206668D01*
X403671D01*
X393674Y216665D02*
Y213332D01*
X397006D01*
X390342D01*
X393674D01*
Y203335D01*
X390342Y200003D01*
X380345D02*
Y213332D01*
X377013D01*
X373681Y210000D01*
Y200003D01*
Y210000D01*
X370348Y213332D01*
X367016Y210000D01*
Y200003D01*
X360352Y216665D02*
X357019Y219997D01*
X350355D01*
X347023Y216665D01*
Y213332D01*
X350355Y210000D01*
X353687D01*
X350355D01*
X347023Y206668D01*
Y203335D01*
X350355Y200003D01*
X357019D01*
X360352Y203335D01*
X327029Y200003D02*
X340358D01*
X327029Y213332D01*
Y216665D01*
X330361Y219997D01*
X337026D01*
X340358Y216665D01*
X320364Y219997D02*
Y200003D01*
X307036D01*
X297039D02*
X290374D01*
X287042Y203335D01*
Y210000D01*
X290374Y213332D01*
X297039D01*
X300371Y210000D01*
Y203335D01*
X297039Y200003D01*
X280377D02*
Y219997D01*
X270381D01*
X267048Y216665D01*
Y210000D01*
X270381Y206668D01*
X280377D01*
X273713D02*
X267048Y200003D01*
X257052Y213332D02*
X250387D01*
X247055Y210000D01*
Y200003D01*
X257052D01*
X260384Y203335D01*
X257052Y206668D01*
X247055D01*
X240390Y200003D02*
Y213332D01*
X233726Y219997D01*
X227061Y213332D01*
Y200003D01*
Y210000D01*
X240390D01*
X207068Y213332D02*
X217064D01*
X220397Y210000D01*
Y203335D01*
X217064Y200003D01*
X207068D01*
X187074Y213332D02*
X197071D01*
X200403Y210000D01*
Y203335D01*
X197071Y200003D01*
X187074D01*
X170413D02*
X177077D01*
X180410Y203335D01*
Y210000D01*
X177077Y213332D01*
X170413D01*
X167080Y210000D01*
Y206668D01*
X180410D01*
X160416Y200003D02*
X153751D01*
X157084D01*
Y219997D01*
X160416D01*
X143755Y200003D02*
Y203335D01*
X140422D01*
Y200003D01*
X143755D01*
X127093D02*
Y219997D01*
X117097D01*
X113764Y216665D01*
Y210000D01*
X117097Y206668D01*
X127093D01*
X93771Y213332D02*
X103768D01*
X107100Y210000D01*
Y203335D01*
X103768Y200003D01*
X93771D01*
X87106Y219997D02*
Y200003D01*
X77109D01*
X73777Y203335D01*
Y206668D01*
Y210000D01*
X77109Y213332D01*
X87106D01*
X67113Y219997D02*
Y200003D01*
X57116D01*
X53784Y203335D01*
Y216665D01*
X57116Y219997D01*
X67113D01*
X43787Y200003D02*
X37122D01*
X33790Y203335D01*
Y210000D01*
X37122Y213332D01*
X43787D01*
X47119Y210000D01*
Y203335D01*
X43787Y200003D01*
X13797Y213332D02*
X23793D01*
X27126Y210000D01*
Y203335D01*
X23793Y200003D01*
X13797D01*
M02*
