G04*
G04 #@! TF.GenerationSoftware,Altium Limited,Altium Designer,22.0.2 (36)*
G04*
G04 Layer_Physical_Order=2*
G04 Layer_Color=16711680*
%FSLAX44Y44*%
%MOMM*%
G71*
G04*
G04 #@! TF.SameCoordinates,30EAB5E2-3245-48BA-9E60-DBBC371523A7*
G04*
G04*
G04 #@! TF.FilePolarity,Positive*
G04*
G01*
G75*
%ADD11C,0.1500*%
%ADD12R,4.8000X1.3500*%
%ADD13C,2.0000*%
%ADD14C,3.2000*%
%ADD15C,3.0000*%
%ADD16C,0.2500*%
%ADD17C,0.6000*%
G04:AMPARAMS|DCode=18|XSize=0.75mm|YSize=0.9mm|CornerRadius=0.0938mm|HoleSize=0mm|Usage=FLASHONLY|Rotation=0.000|XOffset=0mm|YOffset=0mm|HoleType=Round|Shape=RoundedRectangle|*
%AMROUNDEDRECTD18*
21,1,0.7500,0.7125,0,0,0.0*
21,1,0.5625,0.9000,0,0,0.0*
1,1,0.1875,0.2813,-0.3563*
1,1,0.1875,-0.2813,-0.3563*
1,1,0.1875,-0.2813,0.3563*
1,1,0.1875,0.2813,0.3563*
%
%ADD18ROUNDEDRECTD18*%
G04:AMPARAMS|DCode=19|XSize=0.75mm|YSize=0.9mm|CornerRadius=0.0938mm|HoleSize=0mm|Usage=FLASHONLY|Rotation=270.000|XOffset=0mm|YOffset=0mm|HoleType=Round|Shape=RoundedRectangle|*
%AMROUNDEDRECTD19*
21,1,0.7500,0.7125,0,0,270.0*
21,1,0.5625,0.9000,0,0,270.0*
1,1,0.1875,-0.3563,-0.2813*
1,1,0.1875,-0.3563,0.2813*
1,1,0.1875,0.3563,0.2813*
1,1,0.1875,0.3563,-0.2813*
%
%ADD19ROUNDEDRECTD19*%
%ADD20R,1.6000X1.6000*%
%ADD21R,0.8000X0.8000*%
%ADD22R,0.5000X0.8000*%
%ADD23R,0.8000X0.5000*%
%ADD24R,2.1000X1.3000*%
G04:AMPARAMS|DCode=25|XSize=0.6mm|YSize=2.5mm|CornerRadius=0.075mm|HoleSize=0mm|Usage=FLASHONLY|Rotation=0.000|XOffset=0mm|YOffset=0mm|HoleType=Round|Shape=RoundedRectangle|*
%AMROUNDEDRECTD25*
21,1,0.6000,2.3500,0,0,0.0*
21,1,0.4500,2.5000,0,0,0.0*
1,1,0.1500,0.2250,-1.1750*
1,1,0.1500,-0.2250,-1.1750*
1,1,0.1500,-0.2250,1.1750*
1,1,0.1500,0.2250,1.1750*
%
%ADD25ROUNDEDRECTD25*%
G04:AMPARAMS|DCode=26|XSize=1.75mm|YSize=2.5mm|CornerRadius=0.2188mm|HoleSize=0mm|Usage=FLASHONLY|Rotation=180.000|XOffset=0mm|YOffset=0mm|HoleType=Round|Shape=RoundedRectangle|*
%AMROUNDEDRECTD26*
21,1,1.7500,2.0625,0,0,180.0*
21,1,1.3125,2.5000,0,0,180.0*
1,1,0.4375,-0.6563,1.0313*
1,1,0.4375,0.6563,1.0313*
1,1,0.4375,0.6563,-1.0313*
1,1,0.4375,-0.6563,-1.0313*
%
%ADD26ROUNDEDRECTD26*%
G04:AMPARAMS|DCode=27|XSize=0.6mm|YSize=0.5mm|CornerRadius=0.0625mm|HoleSize=0mm|Usage=FLASHONLY|Rotation=0.000|XOffset=0mm|YOffset=0mm|HoleType=Round|Shape=RoundedRectangle|*
%AMROUNDEDRECTD27*
21,1,0.6000,0.3750,0,0,0.0*
21,1,0.4750,0.5000,0,0,0.0*
1,1,0.1250,0.2375,-0.1875*
1,1,0.1250,-0.2375,-0.1875*
1,1,0.1250,-0.2375,0.1875*
1,1,0.1250,0.2375,0.1875*
%
%ADD27ROUNDEDRECTD27*%
G04:AMPARAMS|DCode=28|XSize=1.6mm|YSize=1.8mm|CornerRadius=0.2mm|HoleSize=0mm|Usage=FLASHONLY|Rotation=270.000|XOffset=0mm|YOffset=0mm|HoleType=Round|Shape=RoundedRectangle|*
%AMROUNDEDRECTD28*
21,1,1.6000,1.4000,0,0,270.0*
21,1,1.2000,1.8000,0,0,270.0*
1,1,0.4000,-0.7000,-0.6000*
1,1,0.4000,-0.7000,0.6000*
1,1,0.4000,0.7000,0.6000*
1,1,0.4000,0.7000,-0.6000*
%
%ADD28ROUNDEDRECTD28*%
%ADD29R,4.2000X1.2700*%
%ADD30C,0.6000*%
G36*
X489000Y653750D02*
X447000D01*
X445250Y655500D01*
X437250D01*
Y664500D01*
X445250D01*
X447000Y666250D01*
X489000D01*
Y653750D01*
D02*
G37*
G36*
X376000Y674000D02*
X421000D01*
X442000Y695000D01*
X487000D01*
Y667603D01*
X447000D01*
X446993Y667600D01*
X445750D01*
Y666914D01*
X444690Y665853D01*
X437250D01*
X436293Y665457D01*
X435897Y664500D01*
Y655500D01*
X436293Y654543D01*
X437250Y654147D01*
X444690D01*
X445750Y653087D01*
Y652400D01*
X446993D01*
X447000Y652397D01*
X487000D01*
Y625000D01*
X442000D01*
X421000Y646000D01*
X386750Y646000D01*
Y647750D01*
X376250D01*
Y646000D01*
X376000D01*
Y640000D01*
Y632000D01*
Y622000D01*
X376000Y616000D01*
X376000Y614730D01*
X376000Y608000D01*
X376000Y606730D01*
Y600000D01*
Y593270D01*
X376000Y592000D01*
X376000Y590730D01*
Y584000D01*
Y576000D01*
X378696D01*
Y557661D01*
X318839Y497804D01*
X231161D01*
X175104Y553861D01*
Y615826D01*
X175428Y615891D01*
X176172Y616388D01*
X176669Y617132D01*
X176844Y618010D01*
Y641510D01*
X176669Y642388D01*
X176172Y643132D01*
X175428Y643629D01*
X174550Y643804D01*
X170865D01*
X170339Y645074D01*
X171461Y646196D01*
X174550D01*
X175428Y646371D01*
X176172Y646868D01*
X176669Y647612D01*
X176844Y648490D01*
Y671990D01*
X176669Y672868D01*
X176172Y673612D01*
X175428Y674109D01*
X174550Y674284D01*
X170050D01*
X169172Y674109D01*
X168428Y673612D01*
X167931Y672868D01*
X167756Y671990D01*
Y650421D01*
X165343Y648008D01*
X164411Y648383D01*
X164144Y648605D01*
Y671990D01*
X163969Y672868D01*
X163472Y673612D01*
X162728Y674109D01*
X161850Y674284D01*
X157350D01*
X156472Y674109D01*
X155728Y673612D01*
X155231Y672868D01*
X155056Y671990D01*
Y648490D01*
X155231Y647612D01*
X155728Y646868D01*
X156472Y646371D01*
X156796Y646306D01*
Y643694D01*
X156472Y643629D01*
X155728Y643132D01*
X155231Y642388D01*
X155056Y641510D01*
Y618010D01*
X155231Y617132D01*
X155728Y616388D01*
X156188Y616081D01*
X156313Y615477D01*
X156336Y615042D01*
X156272Y614636D01*
X155185Y613549D01*
X154500Y611895D01*
Y610105D01*
X155185Y608451D01*
X156451Y607185D01*
X158105Y606500D01*
X159895D01*
X161549Y607185D01*
X161726Y607362D01*
X162996Y606836D01*
Y548987D01*
X163210Y547914D01*
X163817Y547004D01*
X222804Y488017D01*
X223714Y487410D01*
X224787Y487196D01*
X325000D01*
X326073Y487410D01*
X326983Y488017D01*
X391983Y553017D01*
X392590Y553927D01*
X392804Y555000D01*
Y585250D01*
X392590Y586323D01*
X391983Y587233D01*
X389233Y589983D01*
X388323Y590590D01*
X387250Y590804D01*
X387178D01*
X387000Y592000D01*
X387038Y592254D01*
X388270Y592765D01*
X397196Y583839D01*
Y525761D01*
X337239Y465804D01*
X324000D01*
Y471000D01*
X300000D01*
Y465804D01*
X234000D01*
Y471000D01*
X210000D01*
Y455000D01*
X234000D01*
Y460196D01*
X300000D01*
Y455000D01*
X324000D01*
Y460196D01*
X338400D01*
X339473Y460410D01*
X340383Y461017D01*
X401161Y521796D01*
X448846D01*
X449284Y520161D01*
X450798Y517539D01*
X452939Y515398D01*
X455561Y513884D01*
X458486Y513100D01*
X461514D01*
X464439Y513884D01*
X467061Y515398D01*
X469202Y517539D01*
X470716Y520161D01*
X471500Y523086D01*
Y526114D01*
X470716Y529039D01*
X469202Y531661D01*
X467061Y533802D01*
X464439Y535316D01*
X461514Y536100D01*
X458486D01*
X455561Y535316D01*
X452939Y533802D01*
X450798Y531661D01*
X449284Y529039D01*
X448846Y527404D01*
X402804D01*
Y585000D01*
X402590Y586073D01*
X401983Y586983D01*
X390983Y597983D01*
X390073Y598590D01*
X389000Y598804D01*
X387000D01*
X387000Y607340D01*
X387328Y607632D01*
X388215Y608051D01*
X388270Y608053D01*
X389605Y607500D01*
X391395D01*
X393049Y608185D01*
X394315Y609451D01*
X395000Y611105D01*
Y612895D01*
X394315Y614549D01*
X393049Y615815D01*
X391395Y616500D01*
X389605D01*
X388270Y615947D01*
X388215Y615949D01*
X387328Y616368D01*
X387000Y616660D01*
X387000Y617270D01*
Y622000D01*
X487000D01*
Y3000D01*
X3000D01*
Y772000D01*
X376000D01*
Y674000D01*
D02*
G37*
G36*
X387000Y576000D02*
X387196Y574811D01*
Y556161D01*
X324617Y493582D01*
X324389Y493628D01*
X323971Y495006D01*
X383483Y554517D01*
X384090Y555427D01*
X384304Y556500D01*
Y576000D01*
X387000D01*
D02*
G37*
%LPC*%
G36*
X321724Y764500D02*
X321250D01*
Y748250D01*
X337500D01*
Y748724D01*
X336828Y752104D01*
X335508Y755289D01*
X333593Y758156D01*
X331156Y760593D01*
X328289Y762508D01*
X325105Y763828D01*
X321724Y764500D01*
D02*
G37*
G36*
X106724D02*
X106250D01*
Y748250D01*
X122500D01*
Y748724D01*
X121827Y752104D01*
X120508Y755289D01*
X118593Y758156D01*
X116156Y760593D01*
X113289Y762508D01*
X110105Y763828D01*
X106724Y764500D01*
D02*
G37*
G36*
X103750D02*
X103276D01*
X99895Y763828D01*
X96711Y762508D01*
X93844Y760593D01*
X91407Y758156D01*
X89492Y755289D01*
X88173Y752104D01*
X87500Y748724D01*
Y748250D01*
X103750D01*
Y764500D01*
D02*
G37*
G36*
X318750D02*
X318276D01*
X314895Y763828D01*
X311711Y762508D01*
X308844Y760593D01*
X306407Y758156D01*
X304492Y755289D01*
X303172Y752104D01*
X302500Y748724D01*
Y748250D01*
X318750D01*
Y764500D01*
D02*
G37*
G36*
X337500Y745750D02*
X321250D01*
Y729500D01*
X321724D01*
X325105Y730173D01*
X328289Y731492D01*
X331156Y733407D01*
X333593Y735844D01*
X335508Y738711D01*
X336828Y741895D01*
X337500Y745276D01*
Y745750D01*
D02*
G37*
G36*
X318750D02*
X302500D01*
Y745276D01*
X303172Y741895D01*
X304492Y738711D01*
X306407Y735844D01*
X308844Y733407D01*
X311711Y731492D01*
X314895Y730173D01*
X318276Y729500D01*
X318750D01*
Y745750D01*
D02*
G37*
G36*
X122500D02*
X106250D01*
Y729500D01*
X106724D01*
X110105Y730173D01*
X113289Y731492D01*
X116156Y733407D01*
X118593Y735844D01*
X120508Y738711D01*
X121827Y741895D01*
X122500Y745276D01*
Y745750D01*
D02*
G37*
G36*
X103750D02*
X87500D01*
Y745276D01*
X88173Y741895D01*
X89492Y738711D01*
X91407Y735844D01*
X93844Y733407D01*
X96711Y731492D01*
X99895Y730173D01*
X103276Y729500D01*
X103750D01*
Y745750D01*
D02*
G37*
G36*
X333000Y722804D02*
X168787Y722804D01*
X167714Y722590D01*
X166804Y721983D01*
X133017Y688196D01*
X132410Y687286D01*
X132196Y686213D01*
Y437000D01*
X132410Y435927D01*
X133017Y435017D01*
X345500Y222535D01*
Y221105D01*
X346185Y219451D01*
X347451Y218185D01*
X349105Y217500D01*
X350895D01*
X352549Y218185D01*
X353815Y219451D01*
X354500Y221105D01*
Y222895D01*
X353815Y224549D01*
X352549Y225815D01*
X350895Y226500D01*
X349465D01*
X137804Y438161D01*
Y441435D01*
X139074Y441961D01*
X345500Y235535D01*
Y234105D01*
X346185Y232451D01*
X347451Y231185D01*
X349105Y230500D01*
X350895D01*
X352549Y231185D01*
X353815Y232451D01*
X354500Y234105D01*
Y235895D01*
X353815Y237549D01*
X352549Y238815D01*
X350895Y239500D01*
X349465D01*
X142804Y446161D01*
Y449435D01*
X144074Y449961D01*
X314017Y280017D01*
X314927Y279410D01*
X316000Y279196D01*
X346440D01*
X347451Y278185D01*
X349105Y277500D01*
X350895D01*
X352549Y278185D01*
X353815Y279451D01*
X354500Y281105D01*
Y282895D01*
X353815Y284549D01*
X352549Y285815D01*
X350895Y286500D01*
X349105D01*
X347451Y285815D01*
X346440Y284804D01*
X317161D01*
X147804Y454161D01*
Y458435D01*
X149074Y458961D01*
X303017Y305017D01*
X303927Y304410D01*
X305000Y304196D01*
X346440D01*
X347451Y303185D01*
X349105Y302500D01*
X350895D01*
X352549Y303185D01*
X353815Y304451D01*
X354500Y306105D01*
Y307895D01*
X353815Y309549D01*
X352549Y310815D01*
X350895Y311500D01*
X349105D01*
X347451Y310815D01*
X346440Y309804D01*
X306161D01*
X209235Y406730D01*
X209761Y408000D01*
X209898Y408000D01*
X209898Y408000D01*
X209955Y408000D01*
X220750D01*
Y415750D01*
X209000D01*
X209000Y408955D01*
Y408898D01*
D01*
X209000Y408761D01*
X208767Y408665D01*
X207730Y408235D01*
X152804Y463161D01*
Y678839D01*
X176161Y702196D01*
X205435D01*
X205961Y700926D01*
X183017Y677983D01*
X182410Y677073D01*
X182196Y676000D01*
Y674174D01*
X181872Y674109D01*
X181128Y673612D01*
X180631Y672868D01*
X180456Y671990D01*
Y648490D01*
X180631Y647612D01*
X181128Y646868D01*
X181872Y646371D01*
X182750Y646196D01*
X186435D01*
X186961Y644926D01*
X185839Y643804D01*
X182750D01*
X181872Y643629D01*
X181128Y643132D01*
X180631Y642388D01*
X180456Y641510D01*
Y618010D01*
X180631Y617132D01*
X181128Y616388D01*
X181872Y615891D01*
X182750Y615716D01*
X187250D01*
X188128Y615891D01*
X188872Y616388D01*
X189369Y617132D01*
X189544Y618010D01*
Y639579D01*
X191957Y641992D01*
X192889Y641617D01*
X193156Y641395D01*
Y618010D01*
X193331Y617132D01*
X193828Y616388D01*
X194572Y615891D01*
X195450Y615716D01*
X199950D01*
X200828Y615891D01*
X201572Y616388D01*
X202069Y617132D01*
X202244Y618010D01*
Y639579D01*
X203566Y640901D01*
X204836Y640375D01*
Y631010D01*
X215964D01*
Y641510D01*
X215711Y642778D01*
X214993Y643853D01*
X214333Y644294D01*
X214309Y644359D01*
Y645642D01*
X214333Y645706D01*
X214993Y646147D01*
X215711Y647222D01*
X215964Y648490D01*
Y658990D01*
X210400D01*
Y661490D01*
X215964D01*
Y671990D01*
X215711Y673258D01*
X214993Y674333D01*
X213918Y675051D01*
X212650Y675304D01*
X210928D01*
X210442Y676477D01*
X216161Y682196D01*
X276018D01*
X277000Y681500D01*
Y670500D01*
X291730D01*
X293000Y670500D01*
Y670500D01*
X293000D01*
Y670500D01*
X307730D01*
X309000Y670500D01*
Y670500D01*
X309000D01*
Y670500D01*
X315730D01*
X317000Y670500D01*
Y670500D01*
X317000D01*
Y670500D01*
X331730D01*
X333000Y670500D01*
X334270Y670500D01*
X341000Y670500D01*
X342270Y670500D01*
X355730D01*
X357000Y670500D01*
X358270Y670500D01*
X370000D01*
Y670750D01*
X372750D01*
Y674000D01*
X373000D01*
Y681500D01*
X371804D01*
Y684000D01*
X371590Y685073D01*
X370983Y685983D01*
X334983Y721983D01*
X334073Y722590D01*
X333000Y722804D01*
D02*
G37*
G36*
X428750Y665853D02*
X409250D01*
X408293Y665457D01*
X407897Y664500D01*
Y655500D01*
X408293Y654543D01*
X409250Y654147D01*
X428750D01*
X429707Y654543D01*
X430103Y655500D01*
Y664500D01*
X429707Y665457D01*
X428750Y665853D01*
D02*
G37*
G36*
X400750D02*
X387500D01*
X386543Y665457D01*
X384939Y663853D01*
X377500D01*
X377251Y663750D01*
X376250D01*
Y662749D01*
X376147Y662500D01*
Y657500D01*
X376250Y657251D01*
Y656250D01*
X377251D01*
X377500Y656147D01*
X384940Y656147D01*
X386543Y654543D01*
X387104Y654311D01*
X387500Y654147D01*
X400750D01*
X401707Y654543D01*
X402103Y655500D01*
Y664500D01*
X401707Y665457D01*
X400750Y665853D01*
D02*
G37*
G36*
X26847Y679750D02*
X23153D01*
X19531Y679029D01*
X16119Y677616D01*
X13048Y675564D01*
X10436Y672952D01*
X8384Y669882D01*
X6970Y666469D01*
X6250Y662847D01*
Y659153D01*
X6970Y655531D01*
X8384Y652119D01*
X10436Y649048D01*
X13048Y646436D01*
X16119Y644384D01*
X19531Y642971D01*
X23153Y642250D01*
X26847D01*
X30469Y642971D01*
X33881Y644384D01*
X36952Y646436D01*
X39564Y649048D01*
X41616Y652119D01*
X43029Y655531D01*
X43750Y659153D01*
Y662847D01*
X43029Y666469D01*
X41616Y669882D01*
X39564Y672952D01*
X36952Y675564D01*
X33881Y677616D01*
X30469Y679029D01*
X26847Y679750D01*
D02*
G37*
G36*
X239813Y639067D02*
X238250D01*
Y633250D01*
X243317D01*
Y635563D01*
X243050Y636904D01*
X242291Y638041D01*
X241154Y638801D01*
X239813Y639067D01*
D02*
G37*
G36*
X235750D02*
X234188D01*
X232846Y638801D01*
X231709Y638041D01*
X230949Y636904D01*
X230683Y635563D01*
Y633250D01*
X235750D01*
Y639067D01*
D02*
G37*
G36*
X274000Y672000D02*
X263000D01*
Y664000D01*
X263000Y656000D01*
X263000Y654730D01*
Y648000D01*
X263000Y640000D01*
X263000Y638730D01*
Y632000D01*
X274000D01*
Y638730D01*
X274000Y640000D01*
X274000Y641270D01*
Y648000D01*
Y654730D01*
X274000Y656000D01*
X274000Y657270D01*
Y664000D01*
Y672000D01*
D02*
G37*
G36*
X243317Y630750D02*
X237000D01*
X230683D01*
Y628438D01*
X230949Y627096D01*
X231709Y625959D01*
X232002Y625764D01*
Y624236D01*
X231709Y624041D01*
X230949Y622904D01*
X230683Y621562D01*
Y619250D01*
X237000D01*
X243317D01*
Y621562D01*
X243050Y622904D01*
X242291Y624041D01*
X241998Y624236D01*
Y625764D01*
X242291Y625959D01*
X243050Y627096D01*
X243317Y628438D01*
Y630750D01*
D02*
G37*
G36*
X215964Y628510D02*
X211650D01*
Y614696D01*
X212650D01*
X213918Y614949D01*
X214993Y615667D01*
X215711Y616742D01*
X215964Y618010D01*
Y628510D01*
D02*
G37*
G36*
X209150D02*
X204836D01*
Y618010D01*
X205089Y616742D01*
X205807Y615667D01*
X206882Y614949D01*
X208150Y614696D01*
X209150D01*
Y628510D01*
D02*
G37*
G36*
X241847Y679750D02*
X238153D01*
X234531Y679029D01*
X231119Y677616D01*
X228048Y675564D01*
X225436Y672952D01*
X223384Y669882D01*
X221971Y666469D01*
X221250Y662847D01*
Y659153D01*
X221971Y655531D01*
X223384Y652119D01*
X225436Y649048D01*
X228048Y646436D01*
X231119Y644384D01*
X234531Y642971D01*
X238153Y642250D01*
X241847D01*
X245469Y642971D01*
X248006Y644021D01*
X248978Y643049D01*
X248500Y641895D01*
Y640105D01*
X248931Y639065D01*
X249114Y638340D01*
X248484Y637356D01*
X248430Y637320D01*
X247891Y636514D01*
X247702Y635563D01*
Y628438D01*
X247891Y627486D01*
X248430Y626680D01*
X249236Y626141D01*
X250187Y625952D01*
X250196D01*
Y624048D01*
X250187D01*
X249236Y623859D01*
X248430Y623320D01*
X247891Y622514D01*
X247702Y621562D01*
Y614437D01*
X247891Y613487D01*
X248430Y612680D01*
X249236Y612141D01*
X250187Y611952D01*
X255812D01*
X256764Y612141D01*
X257570Y612680D01*
X258109Y613487D01*
X258298Y614437D01*
Y615196D01*
X260000D01*
X261073Y615410D01*
X261730Y615849D01*
X262564Y615573D01*
X263000Y615239D01*
X263000Y608000D01*
X262822Y606804D01*
X258298D01*
Y607562D01*
X258109Y608514D01*
X257570Y609320D01*
X256764Y609859D01*
X255812Y610048D01*
X250187D01*
X249236Y609859D01*
X248430Y609320D01*
X247891Y608514D01*
X247702Y607562D01*
Y600438D01*
X247891Y599487D01*
X248430Y598680D01*
X249236Y598142D01*
X250187Y597952D01*
X250196D01*
Y596048D01*
X250187D01*
X249236Y595858D01*
X248430Y595320D01*
X247891Y594514D01*
X247702Y593563D01*
Y586437D01*
X247891Y585486D01*
X248430Y584680D01*
X248484Y584644D01*
X249114Y583660D01*
X248931Y582935D01*
X248500Y581895D01*
Y580105D01*
X249185Y578451D01*
X250451Y577185D01*
X252105Y576500D01*
X253535D01*
X260017Y570017D01*
X260927Y569410D01*
X262000Y569196D01*
X277000D01*
Y566500D01*
X286196D01*
Y566000D01*
X286410Y564927D01*
X287017Y564017D01*
X289017Y562017D01*
X289927Y561409D01*
X291000Y561196D01*
X295000D01*
X296073Y561410D01*
X296983Y562017D01*
X298983Y564017D01*
X299590Y564927D01*
X299804Y566000D01*
Y566500D01*
X309000D01*
Y577500D01*
X294270D01*
X293000Y577500D01*
Y577500D01*
X293000D01*
Y577500D01*
X277000D01*
Y574804D01*
X274178D01*
X274000Y576000D01*
X274000Y576074D01*
Y584000D01*
Y592000D01*
X263000D01*
Y584000D01*
Y576761D01*
X261730Y576235D01*
X257500Y580465D01*
Y581895D01*
X257069Y582935D01*
X256886Y583660D01*
X257516Y584644D01*
X257570Y584680D01*
X258109Y585486D01*
X258298Y586437D01*
Y593563D01*
X258109Y594514D01*
X257570Y595320D01*
X256764Y595858D01*
X255812Y596048D01*
X255804D01*
Y597952D01*
X255812D01*
X256764Y598142D01*
X257570Y598680D01*
X258109Y599487D01*
X258298Y600438D01*
Y601196D01*
X263000D01*
Y600000D01*
X274000D01*
Y606730D01*
X274000Y608000D01*
X274000Y609270D01*
Y614730D01*
X274000Y616000D01*
X274000D01*
Y616000D01*
X274000D01*
Y624000D01*
X263000D01*
Y622804D01*
X262000D01*
X260927Y622590D01*
X260017Y621983D01*
X259568Y621533D01*
X259221Y621541D01*
X258215Y621977D01*
X258109Y622514D01*
X257570Y623320D01*
X256764Y623859D01*
X255812Y624048D01*
X255804D01*
Y625952D01*
X255812D01*
X256764Y626141D01*
X257570Y626680D01*
X258109Y627486D01*
X258298Y628438D01*
Y635563D01*
X258109Y636514D01*
X257570Y637320D01*
X257516Y637356D01*
X256886Y638340D01*
X257069Y639065D01*
X257500Y640105D01*
Y641895D01*
X256815Y643549D01*
X255549Y644815D01*
X253895Y645500D01*
X252759D01*
X252286Y646770D01*
X254564Y649048D01*
X256616Y652119D01*
X258029Y655531D01*
X258750Y659153D01*
Y662847D01*
X258029Y666469D01*
X256616Y669882D01*
X254564Y672952D01*
X251952Y675564D01*
X248881Y677616D01*
X245469Y679029D01*
X241847Y679750D01*
D02*
G37*
G36*
X243317Y616750D02*
X237000D01*
X230683D01*
Y614437D01*
X230949Y613096D01*
X231709Y611959D01*
X232002Y611764D01*
Y610236D01*
X231709Y610041D01*
X230949Y608904D01*
X230683Y607562D01*
Y605250D01*
X237000D01*
X243317D01*
Y607562D01*
X243050Y608904D01*
X242291Y610041D01*
X241998Y610236D01*
Y611764D01*
X242291Y611959D01*
X243050Y613096D01*
X243317Y614437D01*
Y616750D01*
D02*
G37*
G36*
Y602750D02*
X237000D01*
X230683D01*
Y600438D01*
X230949Y599096D01*
X231709Y597959D01*
X232002Y597764D01*
Y596236D01*
X231709Y596041D01*
X230949Y594904D01*
X230683Y593563D01*
Y591250D01*
X237000D01*
X243317D01*
Y593563D01*
X243050Y594904D01*
X242291Y596041D01*
X241998Y596236D01*
Y597764D01*
X242291Y597959D01*
X243050Y599096D01*
X243317Y600438D01*
Y602750D01*
D02*
G37*
G36*
X461514Y612300D02*
X458486D01*
X455561Y611516D01*
X452939Y610002D01*
X450798Y607861D01*
X449284Y605239D01*
X448500Y602314D01*
Y599286D01*
X449284Y596361D01*
X450798Y593739D01*
X452939Y591598D01*
X455561Y590084D01*
X458486Y589300D01*
X461514D01*
X464439Y590084D01*
X467061Y591598D01*
X469202Y593739D01*
X470716Y596361D01*
X471500Y599286D01*
Y602314D01*
X470716Y605239D01*
X469202Y607861D01*
X467061Y610002D01*
X464439Y611516D01*
X461514Y612300D01*
D02*
G37*
G36*
X243317Y588750D02*
X238250D01*
Y582933D01*
X239813D01*
X241154Y583200D01*
X242291Y583959D01*
X243050Y585096D01*
X243317Y586437D01*
Y588750D01*
D02*
G37*
G36*
X235750D02*
X230683D01*
Y586437D01*
X230949Y585096D01*
X231709Y583959D01*
X232846Y583200D01*
X234188Y582933D01*
X235750D01*
Y588750D01*
D02*
G37*
G36*
X461514Y586900D02*
X458486D01*
X455561Y586116D01*
X452939Y584602D01*
X450798Y582461D01*
X449284Y579839D01*
X448500Y576914D01*
Y573886D01*
X449284Y570961D01*
X450798Y568339D01*
X452939Y566198D01*
X455561Y564684D01*
X458486Y563900D01*
X461514D01*
X464439Y564684D01*
X467061Y566198D01*
X469202Y568339D01*
X470716Y570961D01*
X471500Y573886D01*
Y576914D01*
X470716Y579839D01*
X469202Y582461D01*
X467061Y584602D01*
X464439Y586116D01*
X461514Y586900D01*
D02*
G37*
G36*
X324562Y547317D02*
X322250D01*
Y542250D01*
X328067D01*
Y543812D01*
X327800Y545154D01*
X327041Y546291D01*
X325904Y547051D01*
X324562Y547317D01*
D02*
G37*
G36*
X319750D02*
X317437D01*
X316096Y547051D01*
X314959Y546291D01*
X314200Y545154D01*
X313933Y543812D01*
Y542250D01*
X319750D01*
Y547317D01*
D02*
G37*
G36*
X461514Y561500D02*
X458486D01*
X455561Y560716D01*
X452939Y559202D01*
X450798Y557061D01*
X449284Y554439D01*
X448500Y551514D01*
Y548486D01*
X449284Y545561D01*
X450798Y542939D01*
X452939Y540798D01*
X455561Y539284D01*
X458486Y538500D01*
X461514D01*
X464439Y539284D01*
X467061Y540798D01*
X469202Y542939D01*
X470716Y545561D01*
X471500Y548486D01*
Y551514D01*
X470716Y554439D01*
X469202Y557061D01*
X467061Y559202D01*
X464439Y560716D01*
X461514Y561500D01*
D02*
G37*
G36*
X244812Y541049D02*
X239187D01*
X238236Y540859D01*
X237429Y540321D01*
X236891Y539514D01*
X236701Y538563D01*
Y537805D01*
X232559D01*
X231549Y538815D01*
X229895Y539500D01*
X228105D01*
X226451Y538815D01*
X225185Y537549D01*
X224500Y535895D01*
Y534105D01*
X225185Y532451D01*
X226451Y531185D01*
X228105Y530500D01*
X229895D01*
X231549Y531185D01*
X232561Y532197D01*
X236701D01*
Y531438D01*
X236891Y530487D01*
X237429Y529681D01*
X238236Y529142D01*
X239187Y528953D01*
X244812D01*
X245763Y529142D01*
X246569Y529681D01*
X247108Y530487D01*
X247297Y531438D01*
Y538563D01*
X247108Y539514D01*
X246569Y540321D01*
X245763Y540859D01*
X244812Y541049D01*
D02*
G37*
G36*
X260812D02*
X255187D01*
X254236Y540859D01*
X253429Y540321D01*
X252891Y539514D01*
X252701Y538563D01*
Y531438D01*
X252891Y530487D01*
X253429Y529681D01*
X254236Y529142D01*
X255187Y528953D01*
X260812D01*
X261763Y529142D01*
X262569Y529681D01*
X263108Y530487D01*
X263297Y531438D01*
Y532196D01*
X272702D01*
Y531437D01*
X272891Y530486D01*
X273430Y529680D01*
X274236Y529141D01*
X275187Y528952D01*
X280812D01*
X281764Y529141D01*
X282570Y529680D01*
X283109Y530486D01*
X283298Y531437D01*
Y538563D01*
X283109Y539514D01*
X282570Y540320D01*
X281764Y540859D01*
X280812Y541048D01*
X275187D01*
X274236Y540859D01*
X273430Y540320D01*
X272891Y539514D01*
X272702Y538563D01*
Y537804D01*
X263297D01*
Y538563D01*
X263108Y539514D01*
X262569Y540321D01*
X261763Y540859D01*
X260812Y541049D01*
D02*
G37*
G36*
X244812Y516049D02*
X239187D01*
X238236Y515859D01*
X237429Y515321D01*
X236891Y514514D01*
X236701Y513563D01*
Y512805D01*
X232559D01*
X231549Y513815D01*
X229895Y514500D01*
X228105D01*
X226451Y513815D01*
X225185Y512549D01*
X224500Y510895D01*
Y509105D01*
X225185Y507451D01*
X226451Y506185D01*
X228105Y505500D01*
X229895D01*
X231549Y506185D01*
X232561Y507197D01*
X236701D01*
Y506438D01*
X236891Y505487D01*
X237429Y504681D01*
X238236Y504142D01*
X239187Y503953D01*
X244812D01*
X245763Y504142D01*
X246569Y504681D01*
X247108Y505487D01*
X247297Y506438D01*
Y513563D01*
X247108Y514514D01*
X246569Y515321D01*
X245763Y515859D01*
X244812Y516049D01*
D02*
G37*
G36*
X333000Y577500D02*
X333000Y577500D01*
X317000D01*
Y566500D01*
X318196D01*
Y562298D01*
X317437D01*
X316486Y562109D01*
X315680Y561570D01*
X315141Y560764D01*
X314952Y559813D01*
Y554188D01*
X315141Y553236D01*
X315680Y552430D01*
X316486Y551891D01*
X317437Y551702D01*
X324562D01*
X325513Y551891D01*
X326320Y552430D01*
X326859Y553236D01*
X327048Y554188D01*
Y557328D01*
X328221Y557814D01*
X335500Y550535D01*
Y549105D01*
X336185Y547451D01*
X337451Y546185D01*
X339105Y545500D01*
X340895D01*
X342549Y546185D01*
X343815Y547451D01*
X344500Y549105D01*
Y550895D01*
X343815Y552549D01*
X342549Y553815D01*
X341314Y554327D01*
Y555673D01*
X342549Y556185D01*
X343815Y557451D01*
X344500Y559105D01*
Y560895D01*
X343815Y562549D01*
X342549Y563815D01*
X340895Y564500D01*
X339804D01*
Y566322D01*
X341000Y566500D01*
X342270Y566500D01*
X350196D01*
Y549161D01*
X335839Y534804D01*
X327847D01*
X327757Y534905D01*
X327284Y536074D01*
X327800Y536846D01*
X328067Y538187D01*
Y539750D01*
X321000D01*
X313933D01*
Y538187D01*
X314200Y536846D01*
X314716Y536074D01*
X314243Y534905D01*
X314153Y534804D01*
X306161D01*
X303983Y536983D01*
X303073Y537590D01*
X302000Y537804D01*
X299298D01*
Y538563D01*
X299109Y539514D01*
X298570Y540320D01*
X297764Y540859D01*
X296812Y541048D01*
X291187D01*
X290236Y540859D01*
X289430Y540320D01*
X288891Y539514D01*
X288702Y538563D01*
Y531437D01*
X288891Y530486D01*
X289430Y529680D01*
X290236Y529141D01*
X291187Y528952D01*
X296812D01*
X297764Y529141D01*
X298570Y529680D01*
X299109Y530486D01*
X299298Y531437D01*
Y532196D01*
X300839D01*
X303017Y530017D01*
X303927Y529410D01*
X305000Y529196D01*
X337000D01*
X338073Y529410D01*
X338983Y530017D01*
X354983Y546017D01*
X355590Y546927D01*
X355804Y548000D01*
Y566322D01*
X357000Y566500D01*
X358196Y566322D01*
Y547161D01*
X323839Y512804D01*
X298298D01*
Y513563D01*
X298109Y514514D01*
X297570Y515320D01*
X296764Y515859D01*
X295812Y516048D01*
X290187D01*
X289236Y515859D01*
X288430Y515320D01*
X287891Y514514D01*
X287702Y513563D01*
Y506437D01*
X287891Y505486D01*
X288430Y504680D01*
X289236Y504141D01*
X290187Y503952D01*
X295812D01*
X296764Y504141D01*
X297570Y504680D01*
X298109Y505486D01*
X298298Y506437D01*
Y507196D01*
X325000D01*
X326073Y507410D01*
X326983Y508017D01*
X362983Y544017D01*
X363590Y544927D01*
X363804Y546000D01*
Y566500D01*
X373000D01*
Y577500D01*
X358270D01*
X357000Y577500D01*
X355730Y577500D01*
X342270D01*
X341000Y577500D01*
X339730Y577500D01*
X334270D01*
X333000Y577500D01*
D02*
G37*
G36*
X260812Y516049D02*
X255187D01*
X254236Y515859D01*
X253429Y515321D01*
X252891Y514514D01*
X252701Y513563D01*
Y506438D01*
X252891Y505487D01*
X253429Y504681D01*
X254236Y504142D01*
X255187Y503953D01*
X260812D01*
X261763Y504142D01*
X262569Y504681D01*
X263108Y505487D01*
X263297Y506438D01*
Y507196D01*
X271702D01*
Y506437D01*
X271891Y505486D01*
X272430Y504680D01*
X273236Y504141D01*
X274188Y503952D01*
X279813D01*
X280763Y504141D01*
X281570Y504680D01*
X282109Y505486D01*
X282298Y506437D01*
Y513563D01*
X282109Y514514D01*
X281570Y515320D01*
X280763Y515859D01*
X279813Y516048D01*
X274188D01*
X273236Y515859D01*
X272430Y515320D01*
X271891Y514514D01*
X271702Y513563D01*
Y512804D01*
X263297D01*
Y513563D01*
X263108Y514514D01*
X262569Y515321D01*
X261763Y515859D01*
X260812Y516049D01*
D02*
G37*
G36*
X461646Y511700D02*
X461250D01*
Y500450D01*
X472500D01*
Y500846D01*
X471648Y504025D01*
X470003Y506875D01*
X467675Y509202D01*
X464825Y510848D01*
X461646Y511700D01*
D02*
G37*
G36*
X458750D02*
X458354D01*
X455175Y510848D01*
X452325Y509202D01*
X449997Y506875D01*
X448352Y504025D01*
X447500Y500846D01*
Y500450D01*
X458750D01*
Y511700D01*
D02*
G37*
G36*
X472500Y497950D02*
X461250D01*
Y486700D01*
X461646D01*
X464825Y487552D01*
X467675Y489198D01*
X470003Y491525D01*
X471648Y494375D01*
X472500Y497554D01*
Y497950D01*
D02*
G37*
G36*
X458750D02*
X447500D01*
Y497554D01*
X448352Y494375D01*
X449997Y491525D01*
X452325Y489198D01*
X455175Y487552D01*
X458354Y486700D01*
X458750D01*
Y497950D01*
D02*
G37*
G36*
X461724Y479500D02*
X458276D01*
X454895Y478828D01*
X451711Y477508D01*
X448844Y475593D01*
X446407Y473156D01*
X444492Y470289D01*
X443172Y467105D01*
X443070Y466588D01*
X404176D01*
X402421Y466239D01*
X400932Y465244D01*
X391756Y456068D01*
X390761Y454580D01*
X390412Y452824D01*
Y446292D01*
X389891Y445514D01*
X389702Y444562D01*
Y437438D01*
X389891Y436487D01*
X390412Y435708D01*
Y432292D01*
X390275Y432088D01*
X382500D01*
X380744Y431739D01*
X380449Y431542D01*
X380125D01*
X379296Y431377D01*
X379131Y431410D01*
X378942Y431692D01*
X377391Y432728D01*
X375563Y433092D01*
X370250D01*
Y418000D01*
X367750D01*
Y433092D01*
X362438D01*
X360608Y432728D01*
X359058Y431692D01*
X358869Y431410D01*
X358704Y431377D01*
X357875Y431542D01*
X353125D01*
X352296Y431377D01*
X351593Y430907D01*
X351123Y430204D01*
X350958Y429375D01*
Y425625D01*
X351123Y424796D01*
X351593Y424093D01*
X351647Y424057D01*
X351718Y423719D01*
X351560Y422588D01*
X350872Y422128D01*
X350181Y421094D01*
X349939Y419875D01*
Y419250D01*
X355500D01*
Y416750D01*
X349939D01*
Y416125D01*
X350181Y414906D01*
X350872Y413872D01*
X351560Y413412D01*
X351718Y412281D01*
X351647Y411943D01*
X351593Y411907D01*
X351123Y411204D01*
X350958Y410375D01*
Y408734D01*
X350912Y408500D01*
Y402000D01*
X351261Y400244D01*
X352256Y398756D01*
X359256Y391756D01*
X360744Y390761D01*
X362500Y390412D01*
X390941D01*
X391412Y389708D01*
Y382569D01*
X389000D01*
X387634Y382297D01*
X386477Y381523D01*
X385703Y380366D01*
X385431Y379000D01*
Y377588D01*
X372569D01*
Y379000D01*
X372297Y380366D01*
X371523Y381523D01*
X370366Y382297D01*
X369000Y382569D01*
X355000D01*
X353634Y382297D01*
X352477Y381523D01*
X351703Y380366D01*
X351431Y379000D01*
Y367000D01*
X351703Y365634D01*
X352477Y364477D01*
X353634Y363703D01*
X355000Y363432D01*
X369000D01*
X370366Y363703D01*
X371523Y364477D01*
X372297Y365634D01*
X372569Y367000D01*
Y368412D01*
X385431D01*
Y367000D01*
X385703Y365634D01*
X386477Y364477D01*
X387634Y363703D01*
X389000Y363432D01*
X403000D01*
X404366Y363703D01*
X405523Y364477D01*
X406297Y365634D01*
X406569Y367000D01*
Y368412D01*
X413000D01*
X414756Y368761D01*
X416244Y369756D01*
X451273Y404784D01*
X451711Y404492D01*
X454895Y403172D01*
X458276Y402500D01*
X461724D01*
X465105Y403172D01*
X468289Y404492D01*
X471156Y406407D01*
X473593Y408844D01*
X475508Y411711D01*
X476828Y414895D01*
X477500Y418276D01*
Y421724D01*
X476828Y425105D01*
X475508Y428289D01*
X473593Y431156D01*
X471156Y433593D01*
X468289Y435508D01*
X465105Y436828D01*
X461724Y437500D01*
X458276D01*
X454895Y436828D01*
X451711Y435508D01*
X448844Y433593D01*
X446407Y431156D01*
X444492Y428289D01*
X443172Y425105D01*
X442500Y421724D01*
Y418276D01*
X443172Y414895D01*
X444492Y411711D01*
X444784Y411273D01*
X411100Y377588D01*
X406569D01*
Y379000D01*
X406297Y380366D01*
X405523Y381523D01*
X404366Y382297D01*
X403000Y382569D01*
X400588D01*
Y389708D01*
X401109Y390486D01*
X401298Y391437D01*
Y398563D01*
X401109Y399514D01*
X400588Y400292D01*
Y403708D01*
X401109Y404486D01*
X401298Y405438D01*
Y412562D01*
X401109Y413513D01*
X400570Y414320D01*
X399764Y414859D01*
X398812Y415048D01*
X393187D01*
X392236Y414859D01*
X391430Y414320D01*
X390891Y413513D01*
X390807Y413088D01*
X386441D01*
X386056Y414358D01*
X386407Y414593D01*
X386877Y415296D01*
X387042Y416125D01*
Y419875D01*
X386877Y420704D01*
X386407Y421407D01*
X386056Y421642D01*
X386441Y422912D01*
X389807D01*
X389891Y422486D01*
X390430Y421680D01*
X391236Y421141D01*
X392188Y420952D01*
X397812D01*
X398764Y421141D01*
X399570Y421680D01*
X400108Y422486D01*
X400298Y423438D01*
Y430563D01*
X400108Y431514D01*
X399588Y432292D01*
Y435708D01*
X400108Y436487D01*
X400298Y437438D01*
Y444562D01*
X400108Y445514D01*
X399588Y446292D01*
Y450923D01*
X406077Y457412D01*
X443070D01*
X443172Y456895D01*
X444492Y453711D01*
X446407Y450844D01*
X448844Y448407D01*
X451711Y446492D01*
X454895Y445173D01*
X458276Y444500D01*
X461724D01*
X465105Y445173D01*
X468289Y446492D01*
X471156Y448407D01*
X473593Y450844D01*
X475508Y453711D01*
X476828Y456895D01*
X477500Y460276D01*
Y463724D01*
X476828Y467105D01*
X475508Y470289D01*
X473593Y473156D01*
X471156Y475593D01*
X468289Y477508D01*
X465105Y478828D01*
X461724Y479500D01*
D02*
G37*
G36*
X413812Y448067D02*
X412250D01*
Y442250D01*
X417317D01*
Y444562D01*
X417051Y445904D01*
X416291Y447041D01*
X415154Y447800D01*
X413812Y448067D01*
D02*
G37*
G36*
X409750D02*
X408187D01*
X406846Y447800D01*
X405709Y447041D01*
X404949Y445904D01*
X404683Y444562D01*
Y442250D01*
X409750D01*
Y448067D01*
D02*
G37*
G36*
X417317Y439750D02*
X404683D01*
Y437438D01*
X404949Y436096D01*
X405709Y434959D01*
X406002Y434764D01*
Y433236D01*
X405709Y433041D01*
X404949Y431904D01*
X404683Y430563D01*
Y428250D01*
X417317D01*
Y430563D01*
X417051Y431904D01*
X416291Y433041D01*
X415998Y433236D01*
Y434764D01*
X416291Y434959D01*
X417051Y436096D01*
X417317Y437438D01*
Y439750D01*
D02*
G37*
G36*
Y425750D02*
X412250D01*
Y419933D01*
X413812D01*
X415154Y420200D01*
X416291Y420959D01*
X417051Y422096D01*
X417317Y423438D01*
Y425750D01*
D02*
G37*
G36*
X409750D02*
X404683D01*
Y423438D01*
X404949Y422096D01*
X405709Y420959D01*
X406846Y420200D01*
X408187Y419933D01*
X409750D01*
Y425750D01*
D02*
G37*
G36*
X325000Y426000D02*
X313250D01*
Y418250D01*
X325000D01*
Y426000D01*
D02*
G37*
G36*
X235000D02*
X223250D01*
Y418250D01*
X235000D01*
Y426000D01*
D02*
G37*
G36*
X310750D02*
X299000D01*
Y418250D01*
X310750D01*
Y426000D01*
D02*
G37*
G36*
X220750D02*
X209000D01*
Y418250D01*
X220750D01*
Y426000D01*
D02*
G37*
G36*
X414813Y416067D02*
X413250D01*
Y410250D01*
X418317D01*
Y412562D01*
X418050Y413904D01*
X417291Y415041D01*
X416154Y415801D01*
X414813Y416067D01*
D02*
G37*
G36*
X410750D02*
X409188D01*
X407846Y415801D01*
X406709Y415041D01*
X405950Y413904D01*
X405683Y412562D01*
Y410250D01*
X410750D01*
Y416067D01*
D02*
G37*
G36*
X325000Y415750D02*
X313250D01*
Y408000D01*
X325000D01*
Y415750D01*
D02*
G37*
G36*
X310750D02*
X299000D01*
Y408000D01*
X310750D01*
Y415750D01*
D02*
G37*
G36*
X235000D02*
X223250D01*
Y408000D01*
X235000D01*
Y415750D01*
D02*
G37*
G36*
X418317Y407750D02*
X405683D01*
Y405438D01*
X405950Y404096D01*
X406709Y402959D01*
X407002Y402764D01*
Y401236D01*
X406709Y401041D01*
X405950Y399904D01*
X405683Y398563D01*
Y396250D01*
X418317D01*
Y398563D01*
X418050Y399904D01*
X417291Y401041D01*
X416998Y401236D01*
Y402764D01*
X417291Y402959D01*
X418050Y404096D01*
X418317Y405438D01*
Y407750D01*
D02*
G37*
G36*
Y393750D02*
X413250D01*
Y387933D01*
X414813D01*
X416154Y388200D01*
X417291Y388959D01*
X418050Y390096D01*
X418317Y391437D01*
Y393750D01*
D02*
G37*
G36*
X410750D02*
X405683D01*
Y391437D01*
X405950Y390096D01*
X406709Y388959D01*
X407846Y388200D01*
X409188Y387933D01*
X410750D01*
Y393750D01*
D02*
G37*
G36*
X461646Y396000D02*
X461250D01*
Y384750D01*
X472500D01*
Y385146D01*
X471648Y388325D01*
X470003Y391175D01*
X467675Y393503D01*
X464825Y395148D01*
X461646Y396000D01*
D02*
G37*
G36*
X458750D02*
X458354D01*
X455175Y395148D01*
X452325Y393503D01*
X449997Y391175D01*
X448352Y388325D01*
X447500Y385146D01*
Y384750D01*
X458750D01*
Y396000D01*
D02*
G37*
G36*
X472500Y382250D02*
X461250D01*
Y371000D01*
X461646D01*
X464825Y371852D01*
X467675Y373498D01*
X470003Y375825D01*
X471648Y378675D01*
X472500Y381854D01*
Y382250D01*
D02*
G37*
G36*
X458750D02*
X447500D01*
Y381854D01*
X448352Y378675D01*
X449997Y375825D01*
X452325Y373498D01*
X455175Y371852D01*
X458354Y371000D01*
X458750D01*
Y382250D01*
D02*
G37*
G36*
X461514Y369600D02*
X458486D01*
X455561Y368816D01*
X452939Y367302D01*
X450798Y365161D01*
X449284Y362539D01*
X448500Y359614D01*
Y356586D01*
X449284Y353661D01*
X450798Y351039D01*
X452939Y348898D01*
X455561Y347384D01*
X458486Y346600D01*
X461514D01*
X464439Y347384D01*
X467061Y348898D01*
X469202Y351039D01*
X470716Y353661D01*
X471500Y356586D01*
Y359614D01*
X470716Y362539D01*
X469202Y365161D01*
X467061Y367302D01*
X464439Y368816D01*
X461514Y369600D01*
D02*
G37*
G36*
X461514Y344200D02*
X458486D01*
X455561Y343416D01*
X452939Y341902D01*
X450798Y339761D01*
X449370Y337288D01*
X406569D01*
Y339000D01*
X406297Y340366D01*
X405523Y341523D01*
X404366Y342297D01*
X403000Y342569D01*
X389000D01*
X387634Y342297D01*
X386477Y341523D01*
X385703Y340366D01*
X385431Y339000D01*
Y327000D01*
X385703Y325634D01*
X386477Y324477D01*
X387634Y323703D01*
X389000Y323431D01*
X391412D01*
Y209000D01*
X391761Y207244D01*
X392756Y205756D01*
X439056Y159456D01*
X440544Y158461D01*
X442300Y158112D01*
X449370D01*
X450798Y155639D01*
X452939Y153498D01*
X455561Y151984D01*
X458486Y151200D01*
X461514D01*
X464439Y151984D01*
X467061Y153498D01*
X469202Y155639D01*
X470716Y158261D01*
X471500Y161186D01*
Y164214D01*
X470716Y167139D01*
X469202Y169761D01*
X467061Y171902D01*
X464439Y173416D01*
X461514Y174200D01*
X458486D01*
X455561Y173416D01*
X452939Y171902D01*
X450798Y169761D01*
X449370Y167288D01*
X444201D01*
X400588Y210900D01*
Y323431D01*
X403000D01*
X404366Y323703D01*
X405523Y324477D01*
X406297Y325634D01*
X406569Y327000D01*
Y328112D01*
X449370D01*
X450798Y325639D01*
X452939Y323498D01*
X455561Y321984D01*
X458486Y321200D01*
X461514D01*
X464439Y321984D01*
X467061Y323498D01*
X469202Y325639D01*
X470716Y328261D01*
X471500Y331186D01*
Y334214D01*
X470716Y337139D01*
X469202Y339761D01*
X467061Y341902D01*
X464439Y343416D01*
X461514Y344200D01*
D02*
G37*
G36*
Y318800D02*
X458486D01*
X455561Y318016D01*
X452939Y316502D01*
X450798Y314361D01*
X449284Y311739D01*
X448500Y308814D01*
Y305786D01*
X449284Y302861D01*
X450798Y300239D01*
X452939Y298098D01*
X455561Y296584D01*
X458486Y295800D01*
X461514D01*
X464439Y296584D01*
X467061Y298098D01*
X469202Y300239D01*
X470716Y302861D01*
X471500Y305786D01*
Y308814D01*
X470716Y311739D01*
X469202Y314361D01*
X467061Y316502D01*
X464439Y318016D01*
X461514Y318800D01*
D02*
G37*
G36*
Y293400D02*
X458486D01*
X455561Y292616D01*
X452939Y291102D01*
X450798Y288961D01*
X449284Y286339D01*
X448500Y283414D01*
Y280386D01*
X449284Y277461D01*
X450798Y274839D01*
X452939Y272698D01*
X455561Y271184D01*
X458486Y270400D01*
X461514D01*
X464439Y271184D01*
X467061Y272698D01*
X469202Y274839D01*
X470716Y277461D01*
X471500Y280386D01*
Y283414D01*
X470716Y286339D01*
X469202Y288961D01*
X467061Y291102D01*
X464439Y292616D01*
X461514Y293400D01*
D02*
G37*
G36*
Y268000D02*
X458486D01*
X455561Y267216D01*
X452939Y265702D01*
X450798Y263561D01*
X449284Y260939D01*
X448500Y258014D01*
Y254986D01*
X449284Y252061D01*
X450798Y249439D01*
X452939Y247298D01*
X455561Y245784D01*
X458486Y245000D01*
X461514D01*
X464439Y245784D01*
X467061Y247298D01*
X469202Y249439D01*
X470716Y252061D01*
X471500Y254986D01*
Y258014D01*
X470716Y260939D01*
X469202Y263561D01*
X467061Y265702D01*
X464439Y267216D01*
X461514Y268000D01*
D02*
G37*
G36*
X461646Y226000D02*
X461250D01*
Y214750D01*
X472500D01*
Y215146D01*
X471648Y218325D01*
X470003Y221175D01*
X467675Y223503D01*
X464825Y225148D01*
X461646Y226000D01*
D02*
G37*
G36*
X458750D02*
X458354D01*
X455175Y225148D01*
X452325Y223503D01*
X449997Y221175D01*
X448352Y218325D01*
X447500Y215146D01*
Y214750D01*
X458750D01*
Y226000D01*
D02*
G37*
G36*
X472500Y212250D02*
X461250D01*
Y201000D01*
X461646D01*
X464825Y201852D01*
X467675Y203498D01*
X470003Y205825D01*
X471648Y208675D01*
X472500Y211854D01*
Y212250D01*
D02*
G37*
G36*
X458750D02*
X447500D01*
Y211854D01*
X448352Y208675D01*
X449997Y205825D01*
X452325Y203498D01*
X455175Y201852D01*
X458354Y201000D01*
X458750D01*
Y212250D01*
D02*
G37*
G36*
X461514Y199600D02*
X458486D01*
X455561Y198816D01*
X452939Y197302D01*
X450798Y195161D01*
X449284Y192539D01*
X448500Y189614D01*
Y186586D01*
X449284Y183661D01*
X450798Y181039D01*
X452939Y178898D01*
X455561Y177384D01*
X458486Y176600D01*
X461514D01*
X464439Y177384D01*
X467061Y178898D01*
X469202Y181039D01*
X470716Y183661D01*
X471500Y186586D01*
Y189614D01*
X470716Y192539D01*
X469202Y195161D01*
X467061Y197302D01*
X464439Y198816D01*
X461514Y199600D01*
D02*
G37*
G36*
X461514Y148800D02*
X458486D01*
X455561Y148016D01*
X452939Y146502D01*
X450798Y144361D01*
X449284Y141739D01*
X448500Y138814D01*
Y135786D01*
X449284Y132861D01*
X450798Y130239D01*
X452939Y128098D01*
X455561Y126584D01*
X458486Y125800D01*
X461514D01*
X464439Y126584D01*
X467061Y128098D01*
X469202Y130239D01*
X470716Y132861D01*
X471500Y135786D01*
Y138814D01*
X470716Y141739D01*
X469202Y144361D01*
X467061Y146502D01*
X464439Y148016D01*
X461514Y148800D01*
D02*
G37*
G36*
Y123400D02*
X458486D01*
X455561Y122616D01*
X452939Y121102D01*
X450798Y118961D01*
X449284Y116339D01*
X448500Y113414D01*
Y110386D01*
X449284Y107461D01*
X450798Y104839D01*
X452939Y102698D01*
X455561Y101184D01*
X458486Y100400D01*
X461514D01*
X464439Y101184D01*
X467061Y102698D01*
X469202Y104839D01*
X470716Y107461D01*
X471500Y110386D01*
Y113414D01*
X470716Y116339D01*
X469202Y118961D01*
X467061Y121102D01*
X464439Y122616D01*
X461514Y123400D01*
D02*
G37*
G36*
X401847Y129750D02*
X398153D01*
X394531Y129029D01*
X391119Y127616D01*
X388048Y125564D01*
X385436Y122952D01*
X383384Y119881D01*
X381970Y116469D01*
X381250Y112847D01*
Y109153D01*
X381970Y105531D01*
X383384Y102119D01*
X385436Y99048D01*
X388048Y96436D01*
X391119Y94384D01*
X394531Y92971D01*
X398153Y92250D01*
X401847D01*
X405469Y92971D01*
X408881Y94384D01*
X411952Y96436D01*
X414564Y99048D01*
X416616Y102119D01*
X418029Y105531D01*
X418750Y109153D01*
Y112847D01*
X418029Y116469D01*
X416616Y119881D01*
X414564Y122952D01*
X411952Y125564D01*
X408881Y127616D01*
X405469Y129029D01*
X401847Y129750D01*
D02*
G37*
G36*
X186847D02*
X183153D01*
X179531Y129029D01*
X176119Y127616D01*
X173048Y125564D01*
X170436Y122952D01*
X168384Y119881D01*
X166971Y116469D01*
X166250Y112847D01*
Y109153D01*
X166971Y105531D01*
X168384Y102119D01*
X170436Y99048D01*
X173048Y96436D01*
X176119Y94384D01*
X179531Y92971D01*
X183153Y92250D01*
X186847D01*
X190469Y92971D01*
X193881Y94384D01*
X196952Y96436D01*
X199564Y99048D01*
X201616Y102119D01*
X203029Y105531D01*
X203750Y109153D01*
Y112847D01*
X203029Y116469D01*
X201616Y119881D01*
X199564Y122952D01*
X196952Y125564D01*
X193881Y127616D01*
X190469Y129029D01*
X186847Y129750D01*
D02*
G37*
G36*
X461514Y98000D02*
X458486D01*
X455561Y97216D01*
X452939Y95702D01*
X450798Y93561D01*
X449284Y90939D01*
X448500Y88014D01*
Y84986D01*
X449284Y82061D01*
X450798Y79439D01*
X452939Y77298D01*
X455561Y75784D01*
X458486Y75000D01*
X461514D01*
X464439Y75784D01*
X467061Y77298D01*
X469202Y79439D01*
X470716Y82061D01*
X471500Y84986D01*
Y88014D01*
X470716Y90939D01*
X469202Y93561D01*
X467061Y95702D01*
X464439Y97216D01*
X461514Y98000D01*
D02*
G37*
G36*
X241777Y41500D02*
X238223D01*
X234789Y40580D01*
X231711Y38803D01*
X229197Y36289D01*
X227420Y33211D01*
X226500Y29777D01*
Y26223D01*
X227420Y22789D01*
X229197Y19711D01*
X231711Y17197D01*
X234789Y15420D01*
X238223Y14500D01*
X241777D01*
X245211Y15420D01*
X248289Y17197D01*
X250803Y19711D01*
X252580Y22789D01*
X253500Y26223D01*
Y29777D01*
X252580Y33211D01*
X250803Y36289D01*
X248289Y38803D01*
X245211Y40580D01*
X241777Y41500D01*
D02*
G37*
G36*
X26777D02*
X23223D01*
X19789Y40580D01*
X16711Y38803D01*
X14197Y36289D01*
X12420Y33211D01*
X11500Y29777D01*
Y26223D01*
X12420Y22789D01*
X14197Y19711D01*
X16711Y17197D01*
X19789Y15420D01*
X23223Y14500D01*
X26777D01*
X30211Y15420D01*
X33289Y17197D01*
X35803Y19711D01*
X37580Y22789D01*
X38500Y26223D01*
Y29777D01*
X37580Y33211D01*
X35803Y36289D01*
X33289Y38803D01*
X30211Y40580D01*
X26777Y41500D01*
D02*
G37*
G36*
X461724Y47500D02*
X458276D01*
X454895Y46828D01*
X451711Y45508D01*
X448844Y43593D01*
X446407Y41156D01*
X444492Y38289D01*
X443172Y35105D01*
X442500Y31724D01*
Y28276D01*
X443172Y24895D01*
X444492Y21711D01*
X446407Y18844D01*
X448844Y16407D01*
X451711Y14492D01*
X454895Y13173D01*
X458276Y12500D01*
X461724D01*
X465105Y13173D01*
X468289Y14492D01*
X471156Y16407D01*
X473593Y18844D01*
X475508Y21711D01*
X476828Y24895D01*
X477500Y28276D01*
Y31724D01*
X476828Y35105D01*
X475508Y38289D01*
X473593Y41156D01*
X471156Y43593D01*
X468289Y45508D01*
X465105Y46828D01*
X461724Y47500D01*
D02*
G37*
G36*
X369000Y342569D02*
X355000D01*
X353634Y342297D01*
X352477Y341523D01*
X351703Y340366D01*
X351431Y339000D01*
Y327000D01*
X351703Y325634D01*
X352477Y324477D01*
X353634Y323703D01*
X355000Y323431D01*
X357412D01*
Y98900D01*
X318099Y59588D01*
X135000D01*
X133244Y59239D01*
X131756Y58244D01*
X113006Y39495D01*
X112816Y39622D01*
X109813Y40866D01*
X106625Y41500D01*
X103375D01*
X100187Y40866D01*
X97184Y39622D01*
X94482Y37816D01*
X92184Y35518D01*
X90378Y32816D01*
X89134Y29813D01*
X88500Y26625D01*
Y23375D01*
X89134Y20187D01*
X90378Y17184D01*
X92184Y14482D01*
X94482Y12184D01*
X97184Y10378D01*
X100187Y9134D01*
X103375Y8500D01*
X106625D01*
X109813Y9134D01*
X112816Y10378D01*
X115518Y12184D01*
X117816Y14482D01*
X119622Y17184D01*
X120866Y20187D01*
X121500Y23375D01*
Y26625D01*
X120866Y29813D01*
X119622Y32816D01*
X119495Y33006D01*
X136901Y50412D01*
X315412D01*
Y40911D01*
X315187Y40866D01*
X312184Y39622D01*
X309482Y37816D01*
X307184Y35518D01*
X305378Y32816D01*
X304134Y29813D01*
X303500Y26625D01*
Y23375D01*
X304134Y20187D01*
X305378Y17184D01*
X307184Y14482D01*
X309482Y12184D01*
X312184Y10378D01*
X315187Y9134D01*
X318375Y8500D01*
X321625D01*
X324813Y9134D01*
X327816Y10378D01*
X330518Y12184D01*
X332816Y14482D01*
X334622Y17184D01*
X335866Y20187D01*
X336500Y23375D01*
Y26625D01*
X335866Y29813D01*
X334622Y32816D01*
X332816Y35518D01*
X330518Y37816D01*
X327816Y39622D01*
X324813Y40866D01*
X324588Y40911D01*
Y53099D01*
X365244Y93756D01*
X366239Y95244D01*
X366588Y97000D01*
Y323431D01*
X369000D01*
X370366Y323703D01*
X371523Y324477D01*
X372297Y325634D01*
X372569Y327000D01*
Y339000D01*
X372297Y340366D01*
X371523Y341523D01*
X370366Y342297D01*
X369000Y342569D01*
D02*
G37*
%LPD*%
G36*
X358131Y682904D02*
X358002Y681649D01*
X357000Y681500D01*
X355730Y681500D01*
X342270D01*
X341000Y681500D01*
X339730Y681500D01*
X333000Y681500D01*
X331804Y681678D01*
Y685000D01*
X331590Y686073D01*
X330983Y686983D01*
X307039Y710926D01*
X307565Y712196D01*
X328839D01*
X358131Y682904D01*
D02*
G37*
G36*
X428750Y655500D02*
X409250D01*
Y664500D01*
X428750D01*
Y655500D01*
D02*
G37*
G36*
X400750D02*
X387500D01*
X385500Y657500D01*
X377500Y657500D01*
Y662500D01*
X385500D01*
X387500Y664500D01*
X400750D01*
Y655500D01*
D02*
G37*
D11*
X490000Y625000D02*
Y694000D01*
X-0Y775000D02*
X0Y0D01*
X-0Y775000D02*
X490000D01*
X490000Y0D01*
X0D02*
X490000D01*
D12*
X466000Y688250D02*
D03*
Y631750D02*
D03*
D13*
X460000Y550000D02*
D03*
X460000Y575400D02*
D03*
X460000Y600800D02*
D03*
Y499200D02*
D03*
Y524600D02*
D03*
Y256500D02*
D03*
Y332700D02*
D03*
X460000Y358100D02*
D03*
X460000Y383500D02*
D03*
Y281900D02*
D03*
Y307300D02*
D03*
Y86500D02*
D03*
Y162700D02*
D03*
X460000Y188100D02*
D03*
X460000Y213500D02*
D03*
Y111900D02*
D03*
Y137300D02*
D03*
D14*
Y462000D02*
D03*
Y420000D02*
D03*
D15*
X105000Y25000D02*
D03*
Y747000D02*
D03*
X320000Y25000D02*
D03*
Y747000D02*
D03*
D16*
X312000Y541000D02*
X312000Y541000D01*
X321000D01*
X305000Y532000D02*
X337000D01*
X302000Y535000D02*
X305000Y532000D01*
X294000Y535000D02*
X302000D01*
X312000Y565000D02*
X313000Y566000D01*
X312000Y541000D02*
Y565000D01*
X313000Y566000D02*
Y572000D01*
X337000Y532000D02*
X353000Y548000D01*
X281697Y596000D02*
X284731Y599034D01*
X299966D02*
X300000Y599000D01*
X284731Y599034D02*
X299966D01*
X159000Y611000D02*
X159600Y611600D01*
Y660240D01*
X229001Y510001D02*
X239999D01*
X229000Y535000D02*
X229001Y535001D01*
X239999D01*
X312000Y428000D02*
X312000Y428000D01*
Y417000D02*
Y428000D01*
X222000Y417000D02*
Y428000D01*
X222000Y428000D02*
X222000Y428000D01*
X289000Y624000D02*
X300000D01*
X285000Y628000D02*
X289000Y624000D01*
X268500Y628000D02*
X285000D01*
X268500Y596000D02*
X281697D01*
X381500Y612000D02*
X390500D01*
X253000Y618000D02*
Y632000D01*
Y618000D02*
X260000D01*
X262000Y620000D01*
X268500D01*
Y612000D02*
Y620000D01*
X262000Y572000D02*
X281000D01*
X253000Y581000D02*
X262000Y572000D01*
X355500Y418000D02*
X369000D01*
X228000Y618000D02*
X237000D01*
X228000Y632000D02*
X237000D01*
X253000D02*
Y641000D01*
X228000Y604000D02*
X237000D01*
X228000Y590000D02*
X237000D01*
X253000Y581000D02*
Y590000D01*
Y604000D01*
Y604000D01*
Y604000D02*
X268500D01*
X411000Y441000D02*
X420000D01*
X411000Y427000D02*
X420000D01*
X412000Y409000D02*
X421000D01*
X412000Y395000D02*
X421000D01*
X329000Y561000D02*
Y572000D01*
Y561000D02*
X340000Y550000D01*
X337000Y563000D02*
X340000Y560000D01*
X337000Y563000D02*
Y572000D01*
X400000Y524600D02*
Y585000D01*
X381500Y596000D02*
X389000D01*
X400000Y585000D01*
Y524600D02*
X460000D01*
X312000Y463000D02*
X338400D01*
X222000D02*
X312000D01*
X172300Y552700D02*
X230000Y495000D01*
X172300Y552700D02*
Y629760D01*
X230000Y495000D02*
X320000D01*
X165800Y548987D02*
Y644500D01*
Y548987D02*
X224787Y490000D01*
X165800Y644500D02*
X172300Y651000D01*
Y660240D01*
X325000Y490000D02*
X390000Y555000D01*
X224787Y490000D02*
X325000D01*
X320000Y495000D02*
X381500Y556500D01*
Y588000D02*
X387250D01*
X390000Y555000D02*
Y585250D01*
X387250Y588000D02*
X390000Y585250D01*
X381500Y556500D02*
Y580000D01*
X305000Y307000D02*
X350000D01*
X150000Y462000D02*
Y680000D01*
Y462000D02*
X305000Y307000D01*
X316000Y282000D02*
X350000D01*
X145000Y453000D02*
X316000Y282000D01*
X145000Y453000D02*
Y682071D01*
X140000Y445000D02*
Y684142D01*
Y445000D02*
X350000Y235000D01*
X135000Y437000D02*
X350000Y222000D01*
X135000Y437000D02*
Y686213D01*
X338400Y463000D02*
X400000Y524600D01*
X259999Y510001D02*
X260000Y510000D01*
X275000D01*
X259999Y535001D02*
X260000Y535000D01*
X276000D01*
X361000Y546000D02*
Y572000D01*
X325000Y510000D02*
X361000Y546000D01*
X295000Y510000D02*
X325000D01*
X289000Y566000D02*
Y572000D01*
Y566000D02*
X291000Y564000D01*
X295000D01*
X297000Y566000D01*
Y572000D01*
X321000Y557000D02*
X321000Y557000D01*
Y572000D01*
X353000Y548000D02*
Y572000D01*
X145000Y682071D02*
X172929Y710000D01*
X140000Y684142D02*
X170858Y715000D01*
X135000Y686213D02*
X168787Y720000D01*
X150000Y680000D02*
X175000Y705000D01*
X168787Y720000D02*
X333000Y720000D01*
X369000Y676000D02*
Y684000D01*
X333000Y720000D02*
X369000Y684000D01*
X170858Y715000D02*
X330000Y715000D01*
X361000Y684000D01*
Y676000D02*
Y684000D01*
X172929Y710000D02*
X304000D01*
X329000Y685000D01*
Y676000D02*
Y685000D01*
X175000Y705000D02*
X301000D01*
X321000Y685000D01*
Y676000D02*
Y685000D01*
X209000Y700000D02*
X298000D01*
X185000Y660240D02*
Y676000D01*
X209000Y700000D01*
X211400Y695400D02*
X294500D01*
X191500Y645500D02*
Y675500D01*
X211400Y695400D01*
X197700Y674700D02*
X212955Y689955D01*
X197700Y660240D02*
Y674700D01*
X212955Y689955D02*
X291945D01*
X204200Y674200D02*
X215000Y685000D01*
X204200Y645500D02*
Y674200D01*
X215000Y685000D02*
X286700D01*
X197700Y629760D02*
Y639000D01*
X204200Y645500D01*
X286700Y685000D02*
X289000Y682700D01*
Y676000D02*
Y682700D01*
X297000Y676000D02*
Y684900D01*
X291945Y689955D02*
X297000Y684900D01*
X185000Y639000D02*
X191500Y645500D01*
X185000Y629760D02*
Y639000D01*
X294500Y695400D02*
X305000Y684900D01*
Y676000D02*
Y684900D01*
X313000Y676000D02*
Y685000D01*
X298000Y700000D02*
X313000Y685000D01*
D17*
X312000Y541000D02*
D03*
X362500Y636500D02*
D03*
Y611500D02*
D03*
X287500D02*
D03*
Y636500D02*
D03*
X337500Y586500D02*
D03*
X312500D02*
D03*
X287500D02*
D03*
X362500D02*
D03*
X287500Y661500D02*
D03*
X362500D02*
D03*
X337500D02*
D03*
X312500D02*
D03*
X337500Y611500D02*
D03*
X312500D02*
D03*
X337500Y636500D02*
D03*
X312500D02*
D03*
X373000Y654000D02*
D03*
Y666000D02*
D03*
X391000Y649000D02*
D03*
X401000D02*
D03*
X411000D02*
D03*
X421000D02*
D03*
X431000D02*
D03*
X441000D02*
D03*
X451000D02*
D03*
X461000D02*
D03*
X471000D02*
D03*
X481000D02*
D03*
Y671000D02*
D03*
X471000D02*
D03*
X461000D02*
D03*
X451000D02*
D03*
X441000D02*
D03*
X431000D02*
D03*
X421000D02*
D03*
X411000D02*
D03*
X401000D02*
D03*
X391000D02*
D03*
X159000Y611000D02*
D03*
X229000Y510000D02*
D03*
Y535000D02*
D03*
X369000Y418000D02*
D03*
X312000Y428000D02*
D03*
X222000D02*
D03*
X390500Y612000D02*
D03*
X228000Y618000D02*
D03*
Y632000D02*
D03*
X253000Y641000D02*
D03*
X228000Y604000D02*
D03*
Y590000D02*
D03*
X253000Y581000D02*
D03*
X420000Y441000D02*
D03*
Y427000D02*
D03*
X421000Y409000D02*
D03*
Y395000D02*
D03*
X340000Y550000D02*
D03*
Y560000D02*
D03*
X350000Y235000D02*
D03*
Y222000D02*
D03*
Y282000D02*
D03*
Y307000D02*
D03*
D18*
X293000Y510000D02*
D03*
X277000D02*
D03*
X294000Y535000D02*
D03*
X278000D02*
D03*
X241999Y510001D02*
D03*
X257999D02*
D03*
X241999Y535001D02*
D03*
X257999D02*
D03*
X253000Y590000D02*
D03*
X237000D02*
D03*
X253000Y604000D02*
D03*
X237000D02*
D03*
X253000Y618000D02*
D03*
X237000D02*
D03*
X253000Y632000D02*
D03*
X237000D02*
D03*
X411000Y441000D02*
D03*
X395000D02*
D03*
X411000Y427000D02*
D03*
X395000D02*
D03*
X412000Y409000D02*
D03*
X396000D02*
D03*
X412000Y395000D02*
D03*
X396000D02*
D03*
X413000Y660000D02*
D03*
X397000D02*
D03*
X441000D02*
D03*
X425000D02*
D03*
D19*
X321000Y541000D02*
D03*
Y557000D02*
D03*
D20*
X350000Y649000D02*
D03*
X325000D02*
D03*
X300000D02*
D03*
X350000Y624000D02*
D03*
X300000D02*
D03*
X350000Y599000D02*
D03*
X325000D02*
D03*
Y624000D02*
D03*
D21*
X300000Y599000D02*
D03*
D22*
X281000Y572000D02*
D03*
X289000D02*
D03*
X297000D02*
D03*
X305000D02*
D03*
X313000D02*
D03*
X321000D02*
D03*
X329000D02*
D03*
X337000D02*
D03*
X345000D02*
D03*
X353000D02*
D03*
X361000D02*
D03*
X369000D02*
D03*
Y676000D02*
D03*
X361000D02*
D03*
X353000D02*
D03*
X345000D02*
D03*
X337000D02*
D03*
X329000D02*
D03*
X321000D02*
D03*
X313000D02*
D03*
X305000D02*
D03*
X297000D02*
D03*
X289000D02*
D03*
X281000D02*
D03*
D23*
X381500Y580000D02*
D03*
Y588000D02*
D03*
Y596000D02*
D03*
Y604000D02*
D03*
Y612000D02*
D03*
Y620000D02*
D03*
Y628000D02*
D03*
Y636000D02*
D03*
Y644000D02*
D03*
Y652000D02*
D03*
Y660000D02*
D03*
Y668000D02*
D03*
X268500D02*
D03*
Y660000D02*
D03*
Y652000D02*
D03*
Y644000D02*
D03*
Y636000D02*
D03*
Y628000D02*
D03*
Y580000D02*
D03*
Y588000D02*
D03*
Y596000D02*
D03*
Y604000D02*
D03*
Y612000D02*
D03*
Y620000D02*
D03*
D24*
X312000Y463000D02*
D03*
Y417000D02*
D03*
X222000Y463000D02*
D03*
Y417000D02*
D03*
D25*
X197700Y629760D02*
D03*
X210400D02*
D03*
X159600D02*
D03*
X172300D02*
D03*
X185000D02*
D03*
Y660240D02*
D03*
X172300D02*
D03*
X159600D02*
D03*
X210400D02*
D03*
X197700D02*
D03*
D26*
X369000Y418000D02*
D03*
D27*
X382500Y408500D02*
D03*
Y418000D02*
D03*
Y427500D02*
D03*
X355500D02*
D03*
Y418000D02*
D03*
Y408500D02*
D03*
D28*
X362000Y373000D02*
D03*
Y333000D02*
D03*
X396000Y373000D02*
D03*
Y333000D02*
D03*
D29*
X468000Y660000D02*
D03*
D30*
X404176Y462000D02*
X460000D01*
X395000Y452824D02*
X404176Y462000D01*
X395000Y441000D02*
Y452824D01*
X442300Y162700D02*
X460000D01*
X396000Y209000D02*
Y332700D01*
Y209000D02*
X442300Y162700D01*
X396000Y332700D02*
X460000D01*
X396000D02*
Y333000D01*
Y373000D02*
X413000D01*
X460000Y420000D01*
X395000Y427000D02*
Y441000D01*
X394500Y427500D02*
X395000Y427000D01*
X382500Y427500D02*
X394500D01*
X362500Y395000D02*
X396000D01*
X355500Y402000D02*
X362500Y395000D01*
X355500Y402000D02*
Y408500D01*
X396000Y373000D02*
Y395000D01*
Y409000D01*
X395500Y408500D02*
X396000Y409000D01*
X382500Y408500D02*
X395500D01*
X320000Y55000D02*
X362000Y97000D01*
Y333000D01*
Y373000D02*
X396000D01*
X320000Y25000D02*
Y55000D01*
X135000D02*
X320000D01*
X105000Y25000D02*
X135000Y55000D01*
M02*
