M48
;Layer_Color=9474304
;FILE_FORMAT=4:4
METRIC,LZ
;TYPE=PLATED
T1F00S00C0.2500
T2F00S00C1.0000
T3F00S00C1.2000
T4F00S00C1.5000
T5F00S00C3.2000
;TYPE=NON_PLATED
T6F00S00C2.4000
T7F00S00C3.4500
%
T01
X0035Y00222
Y00235
Y00282
Y00307
X00369Y00418
X0042Y00427
Y00441
X00421Y00409
Y00395
X00312Y00428
X00222
X00229Y0051
Y00535
X00312Y00541
X0034Y0055
Y0056
X003375Y005865
X003125
X002875
Y006115
Y006365
Y006615
X003125
X003375
X003625
X00373Y00666
Y00654
X00391Y00649
X00401
X00411
X00421
X00431
X00441
X00451
X00461
X00471
X00481
Y00671
X00471
X00461
X00451
X00441
X00431
X00421
X00411
X00401
X00391
X003905Y00612
X003625Y006115
Y006365
X003375
Y006115
X003125
Y006365
X00253Y00641
X00228Y00632
Y00618
Y00604
Y0059
X00253Y00581
X003625Y005865
X00159Y00611
T02
X0046Y000865
Y001119
Y001373
Y001627
X0046Y001881
X0046Y002135
Y002565
Y002819
Y003073
Y003327
X0046Y003581
X0046Y003835
Y004992
Y005246
Y0055
X0046Y005754
X0046Y006008
T03
X00105Y00025
X0032
X00105Y00747
X0032
T04
X0046Y0042
Y00462
T05
X0046Y0003
Y00745
T06
X00025Y00028
X0024
T07
X00185Y00111
X004
X00025Y00661
X0024
M30
