G04*
G04 #@! TF.GenerationSoftware,Altium Limited,Altium Designer,22.0.2 (36)*
G04*
G04 Layer_Color=65535*
%FSLAX44Y44*%
%MOMM*%
G71*
G04*
G04 #@! TF.SameCoordinates,30EAB5E2-3245-48BA-9E60-DBBC371523A7*
G04*
G04*
G04 #@! TF.FilePolarity,Positive*
G04*
G01*
G75*
%ADD10C,0.1000*%
%ADD11C,0.1500*%
D10*
X118153Y185999D02*
G03*
X118153Y185999I-13153J0D01*
G01*
Y586001D02*
G03*
X118153Y586001I-13153J0D01*
G01*
X333153Y185999D02*
G03*
X333153Y185999I-13153J0D01*
G01*
Y586001D02*
G03*
X333153Y586001I-13153J0D01*
G01*
D11*
X489000Y745000D02*
G03*
X489000Y745000I-29000J0D01*
G01*
Y30000D02*
G03*
X489000Y30000I-29000J0D01*
G01*
X-1000Y-2000D02*
Y772000D01*
Y-2000D02*
X211000D01*
Y772000D01*
X-1000D02*
X211000D01*
X105001Y176000D02*
Y196000D01*
X95000Y185999D02*
X115000D01*
X105001Y576000D02*
Y596000D01*
X105000Y-52000D02*
Y-22000D01*
X90000Y-37000D02*
X120000D01*
X105000Y794000D02*
Y824000D01*
X214000Y-2000D02*
Y772000D01*
Y-2000D02*
X426000D01*
Y772000D01*
X214000D02*
X426000D01*
X320001Y176000D02*
Y196000D01*
X310000Y185999D02*
X330000D01*
X320001Y576000D02*
Y596000D01*
X320000Y-52000D02*
Y-22000D01*
X305000Y-37000D02*
X335000D01*
X320000Y794000D02*
Y824000D01*
X490000Y625000D02*
Y694000D01*
X-0Y775000D02*
X0Y0D01*
X-0Y775000D02*
X490000D01*
X490000Y0D01*
X0D02*
X490000D01*
M02*
